<svg xmlns="http://www.w3.org/2000/svg" viewBox="0 0 640 360" role="img" aria-hidden="true">
<rect width="640" height="360" rx="14" fill="#10151e"/>
<g font-family="Verdana, sans-serif">
<text x="22" y="36" font-size="17" font-weight="bold" fill="#f3f5f9">1.2.4 Captions (Live)</text>
<rect x="22" y="56" width="292" height="284" rx="10" fill="#1b2230" stroke="#3a4354" stroke-width="2"/>
<circle cx="48" cy="84" r="13" fill="#3fca72"/>
<path d="M42 84l4 4 8-8" stroke="#10151e" stroke-width="3" fill="none" stroke-linecap="round" stroke-linejoin="round"/>
<text x="70" y="89" font-size="13" fill="#3fca72">Accessible</text>
<rect x="326" y="56" width="292" height="284" rx="10" fill="#1b2230" stroke="#3a4354" stroke-width="2"/>
<circle cx="352" cy="84" r="13" fill="#e9607d"/>
<path d="M347 79l10 10M357 79l-10 10" stroke="#10151e" stroke-width="3" stroke-linecap="round"/>
<text x="374" y="89" font-size="13" fill="#e9607d">Violation</text>
<rect x="44" y="100" width="248" height="150" rx="8" fill="#151a22" stroke="#3a4354" stroke-width="2"/>
<rect x="56" y="110" width="58" height="22" rx="4" fill="#e9607d"/>
<circle cx="67" cy="121" r="3" fill="#ffffff"/>
<text x="74" y="126" font-size="13" font-weight="bold" fill="#10151e">LIVE</text>
<polygon points="156,156 156,186 182,171" fill="#7aa0e1"/>
<rect x="56" y="214" width="224" height="26" rx="4" fill="#10151e"/>
<text x="168" y="232" font-size="13" fill="#f3f5f9" text-anchor="middle">[Anna] joining us live now</text>
<text x="44" y="290" font-size="13" fill="#3fca72">Real-time captions</text>
<rect x="348" y="100" width="248" height="150" rx="8" fill="#151a22" stroke="#3a4354" stroke-width="2"/>
<rect x="360" y="110" width="58" height="22" rx="4" fill="#e9607d"/>
<circle cx="371" cy="121" r="3" fill="#ffffff"/>
<text x="378" y="126" font-size="13" font-weight="bold" fill="#10151e">LIVE</text>
<polygon points="460,156 460,186 486,171" fill="#7aa0e1"/>
<rect x="534" y="218" width="36" height="22" rx="4" fill="#151a22" stroke="#3a4354" stroke-width="2"/>
<text x="552" y="234" font-size="13" fill="#b8c0cf" text-anchor="middle">CC</text>
<line x1="528" y1="248" x2="576" y2="212" stroke="#e9607d" stroke-width="3" stroke-linecap="round"/>
<text x="348" y="290" font-size="13" fill="#e9607d">No captions on the livestream</text>
</g>
</svg>
