<svg xmlns="http://www.w3.org/2000/svg" viewBox="0 0 640 360" role="img" aria-hidden="true">
<rect width="640" height="360" rx="14" fill="#10151e"/>
<g font-family="Verdana, sans-serif">
<text x="22" y="36" font-size="17" font-weight="bold" fill="#f3f5f9">1.3.2 Meaningful Sequence</text>
<rect x="22" y="56" width="292" height="284" rx="10" fill="#1b2230" stroke="#3a4354" stroke-width="2"/>
<circle cx="48" cy="84" r="13" fill="#3fca72"/>
<path d="M42 84l4 4 8-8" stroke="#10151e" stroke-width="3" fill="none" stroke-linecap="round" stroke-linejoin="round"/>
<text x="70" y="89" font-size="13" fill="#3fca72">Accessible</text>
<rect x="326" y="56" width="292" height="284" rx="10" fill="#1b2230" stroke="#3a4354" stroke-width="2"/>
<circle cx="352" cy="84" r="13" fill="#e9607d"/>
<path d="M347 79l10 10M357 79l-10 10" stroke="#10151e" stroke-width="3" stroke-linecap="round"/>
<text x="374" y="89" font-size="13" fill="#e9607d">Violation</text>
<rect x="60" y="104" width="216" height="40" rx="6" fill="#151a22" stroke="#3a4354" stroke-width="2"/>
<circle cx="82" cy="124" r="11" fill="#7aa0e1"/>
<text x="82" y="129" font-size="13" font-weight="bold" fill="#10151e" text-anchor="middle">1</text>
<text x="102" y="129" font-size="13" fill="#f3f5f9">Choose a plan</text>
<line x1="168" y1="146" x2="168" y2="156" stroke="#3fca72" stroke-width="2"/>
<polygon points="163,155 173,155 168,162" fill="#3fca72"/>
<rect x="60" y="164" width="216" height="40" rx="6" fill="#151a22" stroke="#3a4354" stroke-width="2"/>
<circle cx="82" cy="184" r="11" fill="#7aa0e1"/>
<text x="82" y="189" font-size="13" font-weight="bold" fill="#10151e" text-anchor="middle">2</text>
<text x="102" y="189" font-size="13" fill="#f3f5f9">Enter details</text>
<line x1="168" y1="206" x2="168" y2="216" stroke="#3fca72" stroke-width="2"/>
<polygon points="163,215 173,215 168,222" fill="#3fca72"/>
<rect x="60" y="224" width="216" height="40" rx="6" fill="#151a22" stroke="#3a4354" stroke-width="2"/>
<circle cx="82" cy="244" r="11" fill="#7aa0e1"/>
<text x="82" y="249" font-size="13" font-weight="bold" fill="#10151e" text-anchor="middle">3</text>
<text x="102" y="249" font-size="13" fill="#f3f5f9">Confirm</text>
<text x="60" y="300" font-size="13" fill="#3fca72">Code order: 1 &#8594; 2 &#8594; 3</text>
<rect x="364" y="104" width="216" height="40" rx="6" fill="#151a22" stroke="#3a4354" stroke-width="2"/>
<circle cx="386" cy="124" r="11" fill="#e9607d"/>
<text x="386" y="129" font-size="13" font-weight="bold" fill="#10151e" text-anchor="middle">2</text>
<text x="406" y="129" font-size="13" fill="#f3f5f9">Enter details</text>
<rect x="364" y="164" width="216" height="40" rx="6" fill="#151a22" stroke="#3a4354" stroke-width="2"/>
<circle cx="386" cy="184" r="11" fill="#e9607d"/>
<text x="386" y="189" font-size="13" font-weight="bold" fill="#10151e" text-anchor="middle">3</text>
<text x="406" y="189" font-size="13" fill="#f3f5f9">Confirm</text>
<rect x="364" y="224" width="216" height="40" rx="6" fill="#151a22" stroke="#3a4354" stroke-width="2"/>
<circle cx="386" cy="244" r="11" fill="#e9607d"/>
<text x="386" y="249" font-size="13" font-weight="bold" fill="#10151e" text-anchor="middle">1</text>
<text x="406" y="249" font-size="13" fill="#f3f5f9">Choose a plan</text>
<path d="M580 240c26-16 26-44 4-58" stroke="#e9607d" stroke-width="2" fill="none"/>
<polygon points="588,178 580,186 591,189" fill="#e9607d"/>
<path d="M364 134c-22 14-22 40 0 54" stroke="#e9607d" stroke-width="2" fill="none"/>
<polygon points="358,182 369,184 362,193" fill="#e9607d"/>
<text x="364" y="300" font-size="13" fill="#e9607d">Code order: 2 &#8594; 3 &#8594; 1</text>
</g>
</svg>
