<svg xmlns="http://www.w3.org/2000/svg" viewBox="0 0 640 360" role="img" aria-hidden="true">
<rect width="640" height="360" rx="14" fill="#10151e"/>
<g font-family="Verdana, sans-serif">
<text x="22" y="36" font-size="17" font-weight="bold" fill="#f3f5f9">1.3.5 Identify Input Purpose</text>
<rect x="22" y="56" width="292" height="284" rx="10" fill="#1b2230" stroke="#3a4354" stroke-width="2"/>
<circle cx="48" cy="84" r="13" fill="#3fca72"/>
<path d="M42 84l4 4 8-8" stroke="#10151e" stroke-width="3" fill="none" stroke-linecap="round" stroke-linejoin="round"/>
<text x="70" y="89" font-size="13" fill="#3fca72">Accessible</text>
<rect x="326" y="56" width="292" height="284" rx="10" fill="#1b2230" stroke="#3a4354" stroke-width="2"/>
<circle cx="352" cy="84" r="13" fill="#e9607d"/>
<path d="M347 79l10 10M357 79l-10 10" stroke="#10151e" stroke-width="3" stroke-linecap="round"/>
<text x="374" y="89" font-size="13" fill="#e9607d">Violation</text>
<text x="44" y="114" font-size="13" fill="#f3f5f9">Email</text>
<rect x="44" y="122" width="230" height="34" rx="6" fill="#151a22" stroke="#7aa0e1" stroke-width="2"/>
<text x="56" y="144" font-size="13" fill="#f3f5f9">justin@</text>
<line x1="112" y1="130" x2="112" y2="148" stroke="#90cbff" stroke-width="2"/>
<rect x="44" y="168" width="196" height="24" rx="4" fill="#151a22" stroke="#3fca72" stroke-width="2"/>
<text x="54" y="185" font-size="13" fill="#3fca72">autocomplete=&quot;email&quot;</text>
<rect x="44" y="204" width="230" height="70" rx="6" fill="#1b2230" stroke="#3a4354" stroke-width="2"/>
<rect x="50" y="212" width="218" height="24" rx="4" fill="#7aa0e1"/>
<text x="60" y="229" font-size="13" fill="#10151e">justin@example.com</text>
<text x="60" y="260" font-size="13" fill="#b8c0cf">j.salas@work.com</text>
<text x="44" y="300" font-size="13" fill="#3fca72">Browser can autofill</text>
<text x="348" y="114" font-size="13" fill="#f3f5f9">Email</text>
<rect x="348" y="122" width="230" height="34" rx="6" fill="#151a22" stroke="#3a4354" stroke-width="2"/>
<text x="348" y="185" font-size="13" fill="#e9607d">No autocomplete attribute</text>
<rect x="348" y="204" width="230" height="50" rx="6" fill="#151a22" stroke="#3a4354" stroke-width="2"/>
<text x="463" y="234" font-size="13" fill="#b8c0cf" text-anchor="middle">No suggestions</text>
<line x1="344" y1="262" x2="582" y2="196" stroke="#e9607d" stroke-width="3" stroke-linecap="round"/>
<text x="348" y="300" font-size="13" fill="#e9607d">User must type everything</text>
</g>
</svg>
