<svg xmlns="http://www.w3.org/2000/svg" viewBox="0 0 640 360" role="img" aria-hidden="true">
  <rect width="640" height="360" rx="14" fill="#10151e"/>
  <text x="22" y="36" font-family="Verdana, sans-serif" font-size="17" font-weight="bold" fill="#f3f5f9">2.1.1 Keyboard</text>
  <rect x="22" y="56" width="290" height="288" rx="10" fill="#1b2230" stroke="#3a4354" stroke-width="2"/>
  <rect x="328" y="56" width="290" height="288" rx="10" fill="#1b2230" stroke="#3a4354" stroke-width="2"/>
  <circle cx="48" cy="84" r="13" fill="none" stroke="#3fca72" stroke-width="2"/>
  <path d="M42 84 l4 4 l9 -9" stroke="#3fca72" stroke-width="2" fill="none"/>
  <text x="70" y="89" font-family="Verdana, sans-serif" font-size="13" fill="#3fca72">Accessible</text>
  <circle cx="354" cy="84" r="13" fill="none" stroke="#e9607d" stroke-width="2"/>
  <path d="M349 79 l10 10 M359 79 l-10 10" stroke="#e9607d" stroke-width="2"/>
  <text x="376" y="89" font-family="Verdana, sans-serif" font-size="13" fill="#e9607d">Violation</text>

  <rect x="38" y="104" width="258" height="130" rx="8" fill="#151a22" stroke="#3a4354" stroke-width="2"/>
  <text x="54" y="130" font-family="Verdana, sans-serif" font-size="13" fill="#b8c0cf">Country</text>
  <rect x="54" y="142" width="200" height="36" rx="6" fill="#1b2230" stroke="#90cbff" stroke-width="2"/>
  <text x="66" y="165" font-family="Verdana, sans-serif" font-size="13" fill="#f3f5f9">United States</text>
  <path d="M230 156 l8 8 l8 -8" stroke="#b8c0cf" stroke-width="2" fill="none"/>
  <text x="54" y="212" font-family="Verdana, sans-serif" font-size="13" fill="#90cbff">focused via keyboard</text>

  <rect x="46" y="254" width="56" height="34" rx="5" fill="#151a22" stroke="#7aa0e1" stroke-width="2"/>
  <text x="74" y="276" font-family="Verdana, sans-serif" font-size="13" fill="#f3f5f9" text-anchor="middle">Tab</text>
  <rect x="112" y="254" width="70" height="34" rx="5" fill="#151a22" stroke="#7aa0e1" stroke-width="2"/>
  <text x="147" y="276" font-family="Verdana, sans-serif" font-size="13" fill="#f3f5f9" text-anchor="middle">Enter</text>
  <rect x="192" y="254" width="34" height="34" rx="5" fill="#151a22" stroke="#7aa0e1" stroke-width="2"/>
  <text x="209" y="277" font-family="Verdana, sans-serif" font-size="14" fill="#f3f5f9" text-anchor="middle">&#8593;</text>
  <rect x="236" y="254" width="34" height="34" rx="5" fill="#151a22" stroke="#7aa0e1" stroke-width="2"/>
  <text x="253" y="277" font-family="Verdana, sans-serif" font-size="14" fill="#f3f5f9" text-anchor="middle">&#8595;</text>
  <text x="38" y="322" font-family="Verdana, sans-serif" font-size="13" fill="#b8c0cf">Operable with keys alone</text>

  <rect x="344" y="104" width="258" height="130" rx="8" fill="#151a22" stroke="#3a4354" stroke-width="2"/>
  <rect x="372" y="142" width="150" height="36" rx="6" fill="#1b2230" stroke="#3a4354" stroke-width="2"/>
  <text x="386" y="165" font-family="Verdana, sans-serif" font-size="13" fill="#f3f5f9">Open menu</text>
  <path d="M530 144 v17 l4.5 -3.7 l3.2 7 l3.2 -1.5 l-3.2 -7 h5.8 z" fill="#ffffff"/>
  <text x="372" y="212" font-family="Verdana, sans-serif" font-size="13" fill="#b8c0cf">responds to hover only</text>

  <rect x="386" y="250" width="140" height="44" rx="6" fill="#151a22" stroke="#3a4354" stroke-width="2"/>
  <g fill="#3a4354">
    <rect x="396" y="258" width="10" height="8" rx="2"/><rect x="412" y="258" width="10" height="8" rx="2"/><rect x="428" y="258" width="10" height="8" rx="2"/><rect x="444" y="258" width="10" height="8" rx="2"/><rect x="460" y="258" width="10" height="8" rx="2"/><rect x="476" y="258" width="10" height="8" rx="2"/><rect x="492" y="258" width="10" height="8" rx="2"/><rect x="508" y="258" width="8" height="8" rx="2"/>
    <rect x="404" y="270" width="10" height="8" rx="2"/><rect x="420" y="270" width="10" height="8" rx="2"/><rect x="436" y="270" width="10" height="8" rx="2"/><rect x="452" y="270" width="10" height="8" rx="2"/><rect x="468" y="270" width="10" height="8" rx="2"/><rect x="484" y="270" width="10" height="8" rx="2"/>
    <rect x="420" y="282" width="72" height="6" rx="2"/>
  </g>
  <line x1="378" y1="300" x2="534" y2="244" stroke="#e9607d" stroke-width="3"/>
  <text x="344" y="322" font-family="Verdana, sans-serif" font-size="13" fill="#e9607d">Mouse only &#8212; no keyboard</text>
</svg>
