<svg xmlns="http://www.w3.org/2000/svg" viewBox="0 0 640 360" role="img" aria-hidden="true">
  <rect width="640" height="360" rx="14" fill="#10151e"/>
  <text x="22" y="36" font-family="Verdana, sans-serif" font-size="17" font-weight="bold" fill="#f3f5f9">2.4.3 Focus Order</text>
  <defs>
    <marker id="g" markerWidth="9" markerHeight="9" refX="7" refY="4.5" orient="auto" markerUnits="userSpaceOnUse"><path d="M0 0L9 4.5L0 9Z" fill="#3fca72"/></marker>
    <marker id="r" markerWidth="9" markerHeight="9" refX="7" refY="4.5" orient="auto" markerUnits="userSpaceOnUse"><path d="M0 0L9 4.5L0 9Z" fill="#e9607d"/></marker>
  </defs>
  <rect x="22" y="56" width="290" height="288" rx="10" fill="#1b2230" stroke="#3a4354" stroke-width="2"/>
  <rect x="328" y="56" width="290" height="288" rx="10" fill="#1b2230" stroke="#3a4354" stroke-width="2"/>
  <circle cx="48" cy="84" r="13" fill="none" stroke="#3fca72" stroke-width="2"/>
  <path d="M42 84 l4 4 l9 -9" stroke="#3fca72" stroke-width="2" fill="none"/>
  <text x="70" y="89" font-family="Verdana, sans-serif" font-size="13" fill="#3fca72">Accessible</text>
  <circle cx="354" cy="84" r="13" fill="none" stroke="#e9607d" stroke-width="2"/>
  <path d="M349 79 l10 10 M359 79 l-10 10" stroke="#e9607d" stroke-width="2"/>
  <text x="376" y="89" font-family="Verdana, sans-serif" font-size="13" fill="#e9607d">Violation</text>

  <rect x="96" y="104" width="186" height="30" rx="5" fill="#151a22" stroke="#3a4354" stroke-width="2"/>
  <text x="108" y="124" font-family="Verdana, sans-serif" font-size="13" fill="#b8c0cf">Name</text>
  <circle cx="68" cy="119" r="11" fill="none" stroke="#3fca72" stroke-width="2"/>
  <text x="68" y="124" font-family="Verdana, sans-serif" font-size="13" font-weight="bold" fill="#3fca72" text-anchor="middle">1</text>
  <line x1="189" y1="138" x2="189" y2="152" stroke="#3fca72" stroke-width="2" marker-end="url(#g)"/>
  <rect x="96" y="156" width="186" height="30" rx="5" fill="#151a22" stroke="#3a4354" stroke-width="2"/>
  <text x="108" y="176" font-family="Verdana, sans-serif" font-size="13" fill="#b8c0cf">Email</text>
  <circle cx="68" cy="171" r="11" fill="none" stroke="#3fca72" stroke-width="2"/>
  <text x="68" y="176" font-family="Verdana, sans-serif" font-size="13" font-weight="bold" fill="#3fca72" text-anchor="middle">2</text>
  <line x1="189" y1="190" x2="189" y2="204" stroke="#3fca72" stroke-width="2" marker-end="url(#g)"/>
  <rect x="96" y="208" width="186" height="30" rx="5" fill="#151a22" stroke="#3a4354" stroke-width="2"/>
  <text x="108" y="228" font-family="Verdana, sans-serif" font-size="13" fill="#b8c0cf">Phone</text>
  <circle cx="68" cy="223" r="11" fill="none" stroke="#3fca72" stroke-width="2"/>
  <text x="68" y="228" font-family="Verdana, sans-serif" font-size="13" font-weight="bold" fill="#3fca72" text-anchor="middle">3</text>
  <line x1="189" y1="242" x2="189" y2="256" stroke="#3fca72" stroke-width="2" marker-end="url(#g)"/>
  <rect x="96" y="260" width="112" height="32" rx="6" fill="#7aa0e1"/>
  <text x="152" y="281" font-family="Verdana, sans-serif" font-size="13" font-weight="bold" fill="#10151e" text-anchor="middle">Submit</text>
  <circle cx="68" cy="276" r="11" fill="none" stroke="#3fca72" stroke-width="2"/>
  <text x="68" y="281" font-family="Verdana, sans-serif" font-size="13" font-weight="bold" fill="#3fca72" text-anchor="middle">4</text>
  <text x="38" y="322" font-family="Verdana, sans-serif" font-size="13" fill="#b8c0cf">Tab order matches layout</text>

  <rect x="400" y="104" width="186" height="30" rx="5" fill="#151a22" stroke="#3a4354" stroke-width="2"/>
  <text x="412" y="124" font-family="Verdana, sans-serif" font-size="13" fill="#b8c0cf">Name</text>
  <circle cx="372" cy="119" r="11" fill="none" stroke="#e9607d" stroke-width="2"/>
  <text x="372" y="124" font-family="Verdana, sans-serif" font-size="13" font-weight="bold" fill="#e9607d" text-anchor="middle">1</text>
  <rect x="400" y="156" width="186" height="30" rx="5" fill="#151a22" stroke="#3a4354" stroke-width="2"/>
  <text x="412" y="176" font-family="Verdana, sans-serif" font-size="13" fill="#b8c0cf">Email</text>
  <circle cx="372" cy="171" r="11" fill="none" stroke="#e9607d" stroke-width="2"/>
  <text x="372" y="176" font-family="Verdana, sans-serif" font-size="13" font-weight="bold" fill="#e9607d" text-anchor="middle">3</text>
  <rect x="400" y="208" width="186" height="30" rx="5" fill="#151a22" stroke="#3a4354" stroke-width="2"/>
  <text x="412" y="228" font-family="Verdana, sans-serif" font-size="13" fill="#b8c0cf">Phone</text>
  <circle cx="372" cy="223" r="11" fill="none" stroke="#e9607d" stroke-width="2"/>
  <text x="372" y="228" font-family="Verdana, sans-serif" font-size="13" font-weight="bold" fill="#e9607d" text-anchor="middle">4</text>
  <rect x="400" y="296" width="186" height="28" rx="5" fill="#151a22" stroke="#3a4354" stroke-width="2"/>
  <text x="493" y="315" font-family="Verdana, sans-serif" font-size="13" fill="#b8c0cf" text-anchor="middle">Footer</text>
  <circle cx="372" cy="310" r="11" fill="none" stroke="#e9607d" stroke-width="2"/>
  <text x="372" y="315" font-family="Verdana, sans-serif" font-size="13" font-weight="bold" fill="#e9607d" text-anchor="middle">2</text>
  <path d="M589 130 C 608 185 608 245 593 292" fill="none" stroke="#e9607d" stroke-width="2" marker-end="url(#r)"/>
  <path d="M470 294 L470 194" fill="none" stroke="#e9607d" stroke-width="2" marker-end="url(#r)"/>
  <text x="344" y="276" font-family="Verdana, sans-serif" font-size="13" fill="#e9607d">Focus jumps around</text>
</svg>
