<svg xmlns="http://www.w3.org/2000/svg" viewBox="0 0 640 360" role="img" aria-hidden="true">
  <rect width="640" height="360" rx="14" fill="#10151e"/>
  <text x="22" y="36" font-family="Verdana, sans-serif" font-size="17" font-weight="bold" fill="#f3f5f9">2.5.8 Target Size (Minimum)</text>
  <rect x="22" y="56" width="290" height="288" rx="10" fill="#1b2230" stroke="#3a4354" stroke-width="2"/>
  <rect x="328" y="56" width="290" height="288" rx="10" fill="#1b2230" stroke="#3a4354" stroke-width="2"/>
  <circle cx="48" cy="84" r="13" fill="none" stroke="#3fca72" stroke-width="2"/>
  <path d="M42 84 l4 4 l9 -9" stroke="#3fca72" stroke-width="2" fill="none"/>
  <text x="70" y="89" font-family="Verdana, sans-serif" font-size="13" fill="#3fca72">Accessible</text>
  <circle cx="354" cy="84" r="13" fill="none" stroke="#e9607d" stroke-width="2"/>
  <path d="M349 79 l10 10 M359 79 l-10 10" stroke="#e9607d" stroke-width="2"/>
  <text x="376" y="89" font-family="Verdana, sans-serif" font-size="13" fill="#e9607d">Violation</text>

  <rect x="54" y="130" width="44" height="44" rx="8" fill="#151a22" stroke="#3a4354" stroke-width="2"/>
  <path d="M68 152 h16 M76 144 v16" stroke="#7aa0e1" stroke-width="2"/>
  <rect x="126" y="130" width="44" height="44" rx="8" fill="#151a22" stroke="#3a4354" stroke-width="2"/>
  <circle cx="146" cy="150" r="8" fill="none" stroke="#7aa0e1" stroke-width="2"/>
  <line x1="152" y1="156" x2="160" y2="164" stroke="#7aa0e1" stroke-width="2"/>
  <rect x="198" y="130" width="44" height="44" rx="8" fill="#151a22" stroke="#3a4354" stroke-width="2"/>
  <circle cx="220" cy="152" r="8" fill="none" stroke="#7aa0e1" stroke-width="2"/>
  <path d="M220 140 v-4 M220 164 v4 M208 152 h-4 M232 152 h4" stroke="#7aa0e1" stroke-width="2"/>
  <line x1="54" y1="192" x2="98" y2="192" stroke="#3fca72" stroke-width="2"/>
  <path d="M54 187 v10 M98 187 v10" stroke="#3fca72" stroke-width="2"/>
  <text x="76" y="216" font-family="Verdana, sans-serif" font-size="13" fill="#3fca72" text-anchor="middle">24 px</text>
  <rect x="54" y="240" width="142" height="28" rx="14" fill="#151a22" stroke="#3fca72" stroke-width="2"/>
  <text x="70" y="259" font-family="Verdana, sans-serif" font-size="13" fill="#3fca72">min 24 &#215; 24 px</text>
  <text x="38" y="322" font-family="Verdana, sans-serif" font-size="13" fill="#b8c0cf">Targets are easy to hit</text>

  <rect x="386" y="146" width="18" height="18" rx="4" fill="#151a22" stroke="#3a4354" stroke-width="2"/>
  <path d="M391 155 h8 M395 151 v8" stroke="#7aa0e1" stroke-width="2"/>
  <rect x="408" y="146" width="18" height="18" rx="4" fill="#151a22" stroke="#3a4354" stroke-width="2"/>
  <path d="M413 155 h8" stroke="#7aa0e1" stroke-width="2"/>
  <rect x="430" y="146" width="18" height="18" rx="4" fill="#151a22" stroke="#3a4354" stroke-width="2"/>
  <path d="M435 151 l8 8 M443 151 l-8 8" stroke="#7aa0e1" stroke-width="2"/>
  <rect x="452" y="146" width="18" height="18" rx="4" fill="#151a22" stroke="#3a4354" stroke-width="2"/>
  <path d="M457 155 h8 M461 151 v8" stroke="#7aa0e1" stroke-width="2"/>
  <rect x="474" y="146" width="18" height="18" rx="4" fill="#151a22" stroke="#3a4354" stroke-width="2"/>
  <path d="M479 155 h8" stroke="#7aa0e1" stroke-width="2"/>
  <circle cx="428" cy="153" r="25" fill="none" stroke="#ffba60" stroke-width="3"/>
  <text x="510" y="120" font-family="Verdana, sans-serif" font-size="13" fill="#ffba60">fingertip</text>
  <line x1="386" y1="192" x2="404" y2="192" stroke="#e9607d" stroke-width="2"/>
  <path d="M386 187 v10 M404 187 v10" stroke="#e9607d" stroke-width="2"/>
  <text x="395" y="216" font-family="Verdana, sans-serif" font-size="13" fill="#e9607d" text-anchor="middle">16 px</text>
  <rect x="386" y="240" width="200" height="28" rx="14" fill="#151a22" stroke="#e9607d" stroke-width="2"/>
  <text x="400" y="259" font-family="Verdana, sans-serif" font-size="13" fill="#e9607d">one tap hits two targets</text>
  <text x="344" y="322" font-family="Verdana, sans-serif" font-size="13" fill="#b8c0cf">Tiny, crowded targets cause misses</text>
</svg>
