<svg xmlns="http://www.w3.org/2000/svg" viewBox="0 0 640 360" role="img" aria-hidden="true">
  <rect width="640" height="360" rx="14" fill="#10151e"/>
  <text x="22" y="36" font-family="Verdana, sans-serif" font-size="17" font-weight="bold" fill="#f3f5f9">2.5.1 Pointer Gestures</text>
  <defs>
    <marker id="b" markerWidth="9" markerHeight="9" refX="7" refY="4.5" orient="auto" markerUnits="userSpaceOnUse"><path d="M0 0L9 4.5L0 9Z" fill="#7aa0e1"/></marker>
  </defs>
  <rect x="22" y="56" width="290" height="288" rx="10" fill="#1b2230" stroke="#3a4354" stroke-width="2"/>
  <rect x="328" y="56" width="290" height="288" rx="10" fill="#1b2230" stroke="#3a4354" stroke-width="2"/>
  <circle cx="48" cy="84" r="13" fill="none" stroke="#3fca72" stroke-width="2"/>
  <path d="M42 84 l4 4 l9 -9" stroke="#3fca72" stroke-width="2" fill="none"/>
  <text x="70" y="89" font-family="Verdana, sans-serif" font-size="13" fill="#3fca72">Accessible</text>
  <circle cx="354" cy="84" r="13" fill="none" stroke="#e9607d" stroke-width="2"/>
  <path d="M349 79 l10 10 M359 79 l-10 10" stroke="#e9607d" stroke-width="2"/>
  <text x="376" y="89" font-family="Verdana, sans-serif" font-size="13" fill="#e9607d">Violation</text>

  <rect x="38" y="104" width="258" height="186" rx="8" fill="#151a22" stroke="#3a4354" stroke-width="2"/>
  <path d="M40 198 C 110 178 190 212 294 180" fill="none" stroke="#3a4354" stroke-width="3"/>
  <path d="M152 106 C 162 170 142 230 156 288" fill="none" stroke="#3a4354" stroke-width="3"/>
  <path d="M168 158 c-9 0 -15 7 -15 15 0 11 15 24 15 24 s15 -13 15 -24 c0 -8 -6 -15 -15 -15 z" fill="#7aa0e1"/>
  <circle cx="168" cy="173" r="5" fill="#10151e"/>
  <rect x="250" y="116" width="32" height="30" rx="5" fill="#1b2230" stroke="#3fca72" stroke-width="2"/>
  <text x="266" y="137" font-family="Verdana, sans-serif" font-size="16" fill="#f3f5f9" text-anchor="middle">+</text>
  <rect x="250" y="150" width="32" height="30" rx="5" fill="#1b2230" stroke="#3fca72" stroke-width="2"/>
  <text x="266" y="171" font-family="Verdana, sans-serif" font-size="16" fill="#f3f5f9" text-anchor="middle">&#8722;</text>
  <circle cx="86" cy="246" r="6" fill="#7aa0e1"/>
  <circle cx="120" cy="226" r="6" fill="#7aa0e1"/>
  <line x1="78" y1="251" x2="60" y2="262" stroke="#7aa0e1" stroke-width="2" marker-end="url(#b)"/>
  <line x1="128" y1="221" x2="146" y2="210" stroke="#7aa0e1" stroke-width="2" marker-end="url(#b)"/>
  <text x="38" y="322" font-family="Verdana, sans-serif" font-size="13" fill="#b8c0cf">Pinch or use + / &#8722; buttons</text>

  <rect x="344" y="104" width="258" height="186" rx="8" fill="#151a22" stroke="#3a4354" stroke-width="2"/>
  <path d="M346 198 C 416 178 496 212 600 180" fill="none" stroke="#3a4354" stroke-width="3"/>
  <path d="M458 106 C 468 170 448 230 462 288" fill="none" stroke="#3a4354" stroke-width="3"/>
  <path d="M504 144 c-9 0 -15 7 -15 15 0 11 15 24 15 24 s15 -13 15 -24 c0 -8 -6 -15 -15 -15 z" fill="#7aa0e1"/>
  <circle cx="504" cy="159" r="5" fill="#10151e"/>
  <circle cx="392" cy="246" r="6" fill="#7aa0e1"/>
  <circle cx="426" cy="226" r="6" fill="#7aa0e1"/>
  <line x1="384" y1="251" x2="366" y2="262" stroke="#7aa0e1" stroke-width="2" marker-end="url(#b)"/>
  <line x1="434" y1="221" x2="452" y2="210" stroke="#7aa0e1" stroke-width="2" marker-end="url(#b)"/>
  <text x="344" y="322" font-family="Verdana, sans-serif" font-size="13" fill="#b8c0cf">Two-finger pinch is the only way</text>
</svg>
